<svg xmlns="http://www.w3.org/2000/svg" enable-background="new 0 0 512 512" viewBox="0 0 512 512" id="t-shirt"><path fill="#ea4e4e" d="M505.518,146.191l-47.351,57.838c-4.042,4.938-10.611,7.036-16.767,5.355l-20.762-5.668H91.362l-20.761,5.668c-6.156,1.681-12.725-0.417-16.767-5.355L6.482,146.191c-5.071-6.194-4.845-15.166,0.53-21.097l84.35-93.078h329.276l84.35,93.078C510.363,131.025,510.589,139.997,505.518,146.191z"></path><path fill="#f96464" d="M420.638,203.716c-32.358,97.758-27.814,192.704,2.868,284.168c3.526,10.511-4.18,21.393-15.267,21.393H103.761c-11.087,0-18.793-10.881-15.267-21.393c30.682-91.464,35.226-186.41,2.868-284.168c14.546-60.08,15.81-117.63,0-171.7l100.87-29.302c0,28.458,28.564,51.436,63.768,51.436s63.768-22.978,63.768-51.436l100.87,29.302C404.828,86.085,406.093,143.636,420.638,203.716z"></path><path fill="#fff" d="M123.889,98.031c-0.65-14.125-2.216-28.129-4.652-41.612c-1.058-5.857,2.834-11.462,8.691-12.52c5.842-1.089,11.465,2.831,12.523,8.689c2.605,14.42,4.276,29.376,4.973,44.454c0.274,5.947-4.326,10.988-10.27,11.262C128.814,108.501,124.151,103.686,123.889,98.031z" opacity=".4"></path><path d="M408.238,509.276h-9.431c0.162-2.21-0.108-4.527-0.862-6.79c-32.657-97.217-37.453-198.152-3.072-302.052c-14.928-61.596-16.706-120.712-1.671-176.381l27.43,7.976c-15.79,54.052-14.55,111.605,0,171.693c-32.334,97.755-27.807,192.71,2.856,284.16C427.046,498.39,419.34,509.276,408.238,509.276z" opacity=".08"></path><path fill="#ea4e4e" d="M319.768,2.713c0,28.458-28.564,51.436-63.768,51.436s-63.768-22.978-63.768-51.436C234.744,32.701,277.256,32.701,319.768,2.713z"></path><path d="M506.934,123.344l-84.368-93.089c-0.3-0.334-0.938-0.601-1.201-0.747L320.496,0.207c-0.733-0.218-1.646-0.041-2.234,0.372c-41.896,29.554-82.629,29.554-124.524,0c-0.579-0.41-1.548-0.588-2.234-0.372L90.634,29.508c-0.262,0.146-0.939,0.456-1.201,0.747l-84.37,93.094c-6.18,6.839-6.44,17.373-0.604,24.502l47.362,57.83c4.692,5.76,12.358,8.157,19.475,6.224l18.344-5.007c29.495,90.779,28.292,185.022-3.622,280.154c-4.103,12.242,4.881,24.834,17.744,24.834h304.477c12.859,0,21.848-12.589,17.744-24.834c-31.914-95.132-33.117-189.375-3.622-280.154l18.348,5.007c7.155,1.942,14.805-0.496,19.466-6.219l47.368-57.835C513.377,140.722,513.117,130.188,506.934,123.344z M316.81,7.886c-3.6,27.166-33.052,43.651-60.81,43.651c-27.928,0-57.189-16.323-60.81-43.651C235.564,34.385,276.436,34.385,316.81,7.886z M69.925,206.867c-5.18,1.395-10.694-0.36-14.06-4.49L8.499,144.541c-4.213-5.146-4.024-12.752,0.437-17.689l81.159-89.549c13.549,49.591,13.254,104.827-0.933,164.312L69.925,206.867z M421.03,488.716c2.975,8.861-3.52,17.949-12.792,17.949H103.762c-9.274,0-15.766-9.09-12.792-17.949c32.474-96.806,33.517-192.728,3.106-285.113c14.781-61.492,14.953-118.598,0.515-169.806l95.163-27.644c2.411,31.129,34.515,50.606,66.246,50.606c31.529,0,63.865-19.856,66.246-50.606l95.163,27.644c-14.438,51.208-14.266,108.314,0.515,169.806C387.514,295.988,388.557,391.91,421.03,488.716z M503.502,144.541l-47.372,57.841c-3.361,4.128-8.879,5.893-14.052,4.485l-19.242-5.252c-14.187-59.486-14.482-114.722-0.933-164.312l81.156,89.544C507.525,131.789,507.713,139.396,503.502,144.541z"></path></svg>